DataType=double
version=3
OpenSimVersion=4.4-2022-07-23-0e9fedc
endheader
time	hip_flexion_l	hip_adduction_l	hip_rotation_l	knee_angle_l	ankle_angle_l	subtalar_angle_l
1.43142857	-12.20530799	-5.41457401	2.67317058	14.51296981	-0.27327661	-0.62970236
1.445	-8.15790106	-5.04450434	2.52604967	12.55556261	-0.0723823	-0.62285949
1.45857143	-5.7621265	-5.24349893	2.41823206	11.13530315	0.26736593	-0.57551667
1.47214286	-5.66089917	-5.81632963	2.34321679	10.32541266	0.70385212	-0.42420067
1.48571429	-7.45002754	-6.49425446	2.26956929	9.683872320000001	1.15405904	-0.09440625
1.49928571	-9.85426651	-7.03812503	2.16121894	8.36267048	1.48596935	0.4900917
1.51285714	-11.64307952	-7.40509531	2.03314978	5.63157586	1.48740317	1.36992441
1.52642857	-13.02721001	-7.85056157	1.99029445	1.55795251	0.89299304	2.53974876
1.54	-14.33577113	-8.81740802	2.18434626	-3.47245204	-0.36395249	3.92302005
1.55357143	-15.14707634	-10.89789282	2.79677758	-9.29412411	-2.0716562	5.35705935
1.56714286	-15.32776203	-13.94692048	3.81334661	-15.49687237	-3.92148495	6.69365936
1.58071429	-14.94512027	-17.38904387	5.07969258	-21.67162357	-5.70419023	7.88567513
1.59428571	-14.07570364	-20.71559249	6.40808295	-27.75228275	-7.2857718	8.97669147
1.60785714	-12.87024759	-23.77544679	7.69197974	-33.66530444	-8.6272818	9.98678947
1.62142857	-11.47056853	-26.46231515	8.84674922	-39.35938854	-9.69853919	10.94754874
1.635	-10.0129504	-28.94901786	9.867970189999999	-44.64539876	-10.56866472	11.8404235
1.64857143	-8.507386370000001	-31.52712713	10.82352204	-49.52285725	-11.27835567	12.67789718
1.66214286	-6.91409495	-34.5731347	11.81918585	-54.05400856	-11.88718016	13.4725495
1.67571429	-5.16735965	-38.18569187	12.87443761	-58.19643009	-12.50924101	14.22046522
1.68928571	-3.25425486	-42.38042414	13.98550084	-62.00196436	-13.18712673	14.92704522
1.70285714	-1.21611589	-46.91946565	15.08283574	-65.39713076	-13.96096509	15.5808139
1.71642857	0.85600847	-51.50215104	16.07956915	-68.29813969999999	-14.79252633	16.16019195
1.73	2.84469297	-55.71049059	16.86279289	-70.46774133	-15.70146487	16.61544298
1.74357143	4.68745874	-59.28771296	17.38823698	-71.83285461	-16.62288946	16.92870997
1.75714286	6.38308104	-62.08635965	17.65628864	-72.37043909	-17.49181766	17.09309833
1.77071429	7.91943675	-64.09863882000001	17.69751374	-72.05849124	-18.32100506	17.10076098
1.78428571	9.284324079999999	-65.44091661	17.56666683	-71.03479428999999	-19.04089101	16.97135091
1.79785714	10.40812526	-66.24603104000001	17.3161913	-69.43391687	-19.65184255	16.72871126
1.81142857	11.23466646	-66.61933842000001	16.98890035	-67.44539376	-20.14613205	16.41539068
1.825	11.72050671	-66.66275591	16.62386097	-65.25677810000001	-20.64104515	16.09023777
1.83857143	11.91252792	-66.46079506	16.25520007	-63.09178466	-21.18540854	15.82108337
1.85214286	11.90063817	-66.10352773	15.91643766	-61.14215023	-21.83575127	15.66883722
1.86571429	11.75855659	-65.74338684	15.62867605	-59.50429427	-22.7601156	15.66223507
1.87928571	11.61693712	-65.44812487999999	15.40408625	-58.25173867	-24.02365362	15.82703943
1.89285714	11.59682984	-65.26221935	15.24407201	-57.39484593	-25.69833661	16.17172172
1.90642857	11.76987358	-65.16818369000001	15.1365789	-56.87918733	-27.8189486	16.69623368
1.92	12.10490197	-65.14515849999999	15.05745458	-56.55080273	-30.41332552	17.35867015
1.93357143	12.58538533	-65.11555865	14.99022358	-56.28283983	-33.41397137	18.13490258
1.94714286	13.18953457	-65.00725448	14.9230497	-55.95326926	-36.73198313	18.9972211
1.96071429	13.82996278	-64.74162633	14.82639553	-55.40510186	-40.27844905	19.8849151
1.97428571	14.48244309	-64.28125416	14.6866321	-54.59134592	-43.90774097	20.7698645
1.98785714	15.09477927	-63.64820718	14.49724678	-53.49601513	-47.46309126	21.61396228
2.00142857	15.62724	-62.89319668	14.26749361	-52.14659583	-50.80559966	22.40227181
2.015	16.03835028	-62.08358435	13.99629963	-50.57519925	-53.87100479	23.09293621
2.02857143	16.35257433	-61.25166815	13.68959144	-48.8721214	-56.61924768	23.68697736
2.04214286	16.62439189	-60.39069118	13.3547278	-47.13567596	-59.04849605	24.19673175
2.05571429	16.89941054	-59.46065506	12.98751896	-45.41918374	-61.23319705	24.61184259
2.06928571	17.25286303	-58.39536623	12.59760528	-43.77920299	-63.2089802	24.95392063
2.08285714	17.73343818	-57.14106669	12.19176442	-42.22900415	-65.03120781	25.23175955
2.09642857	18.3689009	-55.67805428	11.77923502	-40.7686817	-66.73690338999999	25.45904047
2.11	19.15475444	-54.05238099	11.36903928	-39.35137719	-68.45936399	25.63571622
2.12357143	20.13991529	-52.3444037	10.97988838	-38.00151521	-70.24490235	25.79826327
2.13714286	21.40593509	-50.67660708	10.62272758	-36.76898188	-72.14078354999999	25.97801131
2.15071429	23.01585794	-49.16871354	10.29388687	-35.67400759	-74.24107058	26.17710702
2.16428571	25.021501	-47.9169918	9.994018799999999	-34.74591284	-76.54159301999999	26.39925031
2.17785714	27.39821595	-46.94915144	9.71382876	-33.9679484	-78.98013336	26.61596423
2.19142857	30.05499833	-46.19335467	9.440550910000001	-33.29085933	-81.39918934000001	26.77794808
2.205	32.78449052	-45.43636554	9.14205276	-32.57820445	-83.62922268	26.79546986
2.21857143	35.34453604	-44.35187909	8.781207739999999	-31.70118418	-85.38070515	26.57864387
2.23214286	37.45724265	-42.53457734	8.31672951	-30.53670458	-86.28993432	26.03699676
2.24571429	38.89013548	-39.65132515	7.71083854	-29.0220149	-86.04345211	25.10032209
2.25928571	39.47783838	-35.52645652	6.93708105	-27.17387608	-84.31209583	23.74636527
2.27285714	39.09651746	-30.24494095	5.99461035	-25.03412387	-80.93001671	22.00794825
2.28642857	37.64298248	-24.15115722	4.91198525	-22.63976712	-75.81577111999999	19.94680902
2.3	35.20253988	-17.85652069	3.75935195	-20.0887835	-69.22938752	17.68627218
2.31357143	31.89926061	-11.98180694	2.61488953	-17.41459757	-61.38080106	15.31609498
2.32714286	28.00286501	-7.13081302	1.57314592	-14.63872853	-52.56888958	12.90598658
2.34071429	24.05353278	-3.80325011	0.74386977	-11.92902753	-43.38590663	10.56213808
2.35428571	20.61821548	-2.14023322	0.17778122	-9.439974550000001	-34.22417589	8.32150594
2.36785714	18.26389883	-1.88883587	-0.15711644	-7.40935955	-25.55526495	6.23919957
2.38142857	17.27013718	-2.4439829	-0.39379437	-6.01556297	-17.76359047	4.36417502
2.395	17.49270475	-3.22616481	-0.64996816	-5.43776802	-11.26812201	2.78538737
2.40857143	18.49567866	-3.77937864	-1.01912642	-5.62969936	-6.15200809	1.5262115
2.42214286	19.71172748	-3.90225632	-1.51325186	-6.40755669	-2.39473664	0.58932589
2.43571429	20.59537749	-3.71101607	-2.02770862	-7.52388982	0.06096083	-0.03754721
2.44928571	20.86972236	-3.39667342	-2.44740885	-8.6804817	1.43405142	-0.40633596
2.46285714	20.70613464	-3.15344831	-2.68729736	-9.752665329999999	1.99843001	-0.57945654
2.47642857	20.39436246	-3.10358514	-2.70192005	-10.63053418	2.04576604	-0.62931421
2.49	20.11554907	-3.2087813	-2.5247784	-11.14936197	1.83591288	-0.61798177
2.50357143	19.91645084	-3.35587986	-2.22496495	-11.13912075	1.57023944	-0.58975587
2.51714286	19.74488402	-3.39469443	-1.88658341	-10.48279951	1.36243073	-0.56463389
2.53071429	19.46513738	-3.24543559	-1.57356161	-9.13072373	1.27043182	-0.55352271
2.54428571	18.88246679	-2.88466575	-1.31517897	-7.0959269	1.27107747	-0.55348219
2.55785714	17.80551266	-2.38380641	-1.10590573	-4.4703495	1.32880811	-0.56344229
2.57142857	16.09420109	-1.82751208	-0.92093395	-1.40875924	1.39132204	-0.5740566
2.585	13.68618706	-1.34791939	-0.71995371	1.8839948	1.41938508	-0.5821224699999999
2.59857143	10.57937286	-1.12589035	-0.45180235	5.18036033	1.41645923	-0.59138158
2.61214286	6.79574479	-1.29978502	-0.08495417	8.30984928	1.36739971	-0.59969389
2.62571429	2.39373027	-1.97064072	0.38631189	11.15732651	1.28985058	-0.6058004299999999
2.63928571	-2.54169628	-3.20448154	0.95527189	13.6939523	1.17754748	-0.61144962
2.65285714	-7.84314661	-4.85695822	1.55631882	15.93182182	1.02737673	-0.61392809
2.66642857	-13.25989709	-6.70606946	2.12270849	17.8865734	0.83566629	-0.61561579
2.68	-18.40162736	-8.39849317	2.58480607	19.5315734	0.5950183	-0.61550688
2.69357143	-22.74849055	-9.582858310000001	2.89188547	20.76336529	0.32611303	-0.6170591
2.70714286	-25.71810121	-10.02113779	3.03510838	21.42403671	0.05154006	-0.6112096299999999
2.72071429	-26.80104315	-9.71731494	3.04064474	21.34179201	-0.18277669	-0.5991081
2.73428571	-25.71800758	-8.83932783	2.94034233	20.42937086	-0.3455761	-0.58691679
2.74785714	-22.53428427	-7.67327679	2.77527874	18.72762016	-0.41105392	-0.58019309
2.76142857	-17.74238431	-6.51154747	2.57852043	16.43601922	-0.34790109	-0.57965722
2.775	-12.20185826	-5.58418242	2.37491415	13.8720776	-0.14782246	-0.57561524
2.78857143	-7.02441171	-5.00298436	2.16345224	11.38732546	0.20599173	-0.55029487
